<?xml version="1.0" standalone="no"?><!DOCTYPE svg PUBLIC "-//W3C//DTD SVG 1.1//EN" "http://www.w3.org/Graphics/SVG/1.1/DTD/svg11.dtd"><svg t="1615696902497" class="icon" viewBox="0 0 1158 1024" version="1.1" xmlns="http://www.w3.org/2000/svg" p-id="5227" xmlns:xlink="http://www.w3.org/1999/xlink" width="226.171875" height="200"><defs><style type="text/css"></style></defs><path d="M40.421053 1024h1077.894736a40.421053 40.421053 0 0 0 0-80.842105h-1077.894736a40.421053 40.421053 0 0 0 0 80.842105zM538.947368 512v296.421053h107.789474V512h-107.789474m0-80.842105h107.789474a80.842105 80.842105 0 0 1 80.842105 80.842105v296.421053a80.842105 80.842105 0 0 1-80.842105 80.842105h-107.789474a80.842105 80.842105 0 0 1-80.842105-80.842105V512a80.842105 80.842105 0 0 1 80.842105-80.842105z m323.368421-107.789474v485.052632h107.789474V323.368421h-107.789474m0-80.842105h107.789474a80.842105 80.842105 0 0 1 80.842105 80.842105v485.052632a80.842105 80.842105 0 0 1-80.842105 80.842105h-107.789474a80.842105 80.842105 0 0 1-80.842105-80.842105V323.368421a80.842105 80.842105 0 0 1 80.842105-80.842105zM215.578947 80.842105v727.578948h107.789474V80.842105H215.578947m0-80.842105h107.789474a80.842105 80.842105 0 0 1 80.842105 80.842105v727.578948a80.842105 80.842105 0 0 1-80.842105 80.842105H215.578947a80.842105 80.842105 0 0 1-80.842105-80.842105V80.842105a80.842105 80.842105 0 0 1 80.842105-80.842105z" fill="blue" p-id="5228"></path></svg>