<?xml version="1.0" standalone="no"?><!DOCTYPE svg PUBLIC "-//W3C//DTD SVG 1.1//EN" "http://www.w3.org/Graphics/SVG/1.1/DTD/svg11.dtd"><svg t="1615696834652" class="icon" viewBox="0 0 1024 1024" version="1.1" xmlns="http://www.w3.org/2000/svg" p-id="2204" xmlns:xlink="http://www.w3.org/1999/xlink" width="200" height="200"><defs><style type="text/css"></style></defs><path d="M931.479305 1023.72653a44.607686 44.607686 0 0 1-26.473404-8.47149L511.611119 730.930682 118.216336 1015.122673a44.740053 44.740053 0 0 1-46.857924 4.103378A45.137154 45.137154 0 0 1 47.135247 979.515945V45.004787A45.004787 45.004787 0 0 1 92.140034 0h839.471638a45.004787 45.004787 0 0 1 45.004787 45.004787v933.716956a45.269521 45.269521 0 0 1-45.137154 45.004787z" p-id="2205"></path><path d="M277.850962 223.83263a38.783537 38.783537 0 0 0 38.783537 38.65117h390.482708a38.783537 38.783537 0 0 0 0-77.434707h-390.482708a38.783537 38.783537 0 0 0-38.783537 38.783537zM277.850962 472.55026a38.783537 38.783537 0 0 0 38.783537 38.783537h390.482708a38.783537 38.783537 0 0 0 0-77.434707h-390.482708a38.783537 38.783537 0 0 0-38.783537 38.65117z"  p-id="2206"></path></svg>